<?xml version="1.0" encoding="utf-8"?>
<!-- Generator: Adobe Illustrator 25.2.3, SVG Export Plug-In . SVG Version: 6.00 Build 0)  -->
<svg version="1.1" id="Layer_1" xmlns="http://www.w3.org/2000/svg" xmlns:xlink="http://www.w3.org/1999/xlink" x="0px" y="0px"
	 viewBox="0 0 50 50" style="enable-background:new 0 0 50 50;" xml:space="preserve">
<style type="text/css">
	.st0{fill:#EF4135;}
	.st1{fill:#F5333F;}
	.st2{fill:#C10508;}
	.st3{fill:#FFFFFF;}
</style>
<g>
	<g id="Layer_2_1_">
		<g id="Layer_1-2">
			<polygon class="st0" points="1.1,25 4.3,30.5 4.3,19.5 			"/>
			<polygon class="st1" points="37,45.7 40.2,40.2 30.5,45.7 			"/>
			<polygon class="st0" points="13,4.3 9.8,9.8 19.5,4.3 			"/>
			<polygon class="st0" points="13,45.7 19.5,45.7 9.8,40.2 			"/>
			<polygon class="st0" points="37,4.3 30.5,4.3 40.2,9.8 			"/>
			<polygon class="st1" points="48.9,25 45.7,19.5 45.7,30.5 			"/>
			<polygon class="st0" points="45.7,30.5 40.2,40.2 45.7,37 			"/>
			<polygon class="st0" points="25,48.9 30.5,45.7 19.5,45.7 			"/>
			<polygon class="st0" points="4.3,37 9.8,40.2 4.3,30.5 			"/>
			<polygon class="st1" points="25,1.1 19.5,4.3 30.5,4.3 			"/>
			<polygon class="st0" points="4.3,13 4.3,19.5 9.8,9.8 			"/>
			<polygon class="st0" points="45.7,13 40.2,9.8 45.7,19.5 			"/>
			<polygon class="st2" points="45.7,19.5 40.2,9.8 30.5,4.3 19.5,4.3 9.8,9.8 4.3,19.5 4.3,30.5 9.8,40.2 19.5,45.7 30.5,45.7 
				40.2,40.2 45.7,30.5 			"/>
			<g>
				
					<image style="overflow:visible;enable-background:new    ;" width="199" height="196" xlink:href="2EE9B860513CDC1A.png"  transform="matrix(0.2159 0 0 0.2159 4.2629 4.6559)">
				</image>
			</g>
			<path class="st3" d="M35,38.2l-2.8-2.5c-2.2,1.4-4.8,2.2-7.5,2.2c-7.8,0-13.3-5.8-13.3-12.9v-0.1c0-7.1,5.6-13,13.4-13
				s13.3,5.8,13.3,12.9v0.1c0,2.6-0.8,5.1-2.2,7.2l2.6,2.2L35,38.2z M32.4,24.8c0-4.3-3.2-7.9-7.6-7.9s-7.5,3.5-7.5,7.8v0.1
				c0,4.3,3.2,7.9,7.6,7.9c1.1,0,2.3-0.2,3.3-0.7l-4.1-3.5l3.5-4l4.1,3.7C32.2,27.3,32.4,26.1,32.4,24.8L32.4,24.8z"/>
		</g>
	</g>
</g>
</svg>
